<?xml version="1.0" standalone="no"?>
<!DOCTYPE svg PUBLIC "-//W3C//DTD SVG 20010904//EN"
 "http://www.w3.org/TR/2001/REC-SVG-20010904/DTD/svg10.dtd">
<svg version="1.0" xmlns="http://www.w3.org/2000/svg"
 width="700.000000pt" height="700.000000pt" viewBox="0 0 700.000000 700.000000"
 preserveAspectRatio="xMidYMid meet">

<g transform="translate(0.000000,700.000000) scale(0.100000,-0.100000)"
fill="#000000" stroke="none">
<path d="M0 3500 l0 -3500 3500 0 3500 0 0 3500 0 3500 -3500 0 -3500 0 0
-3500z m4322 -532 c237 -110 295 -425 113 -612 -55 -57 -126 -93 -215 -108
-179 -31 -356 56 -428 210 -24 50 -27 69 -27 162 0 93 3 112 27 162 32 69 98
142 153 170 76 40 116 48 220 45 83 -2 110 -7 157 -29z m658 21 c36 -5 84 -19
108 -29 l43 -19 -36 -71 -35 -70 -40 20 c-77 39 -160 18 -160 -40 0 -34 11
-41 114 -76 96 -33 144 -66 167 -117 52 -115 -4 -258 -121 -310 -56 -25 -164
-33 -226 -18 -55 14 -154 60 -154 72 0 11 70 139 76 139 2 0 21 -11 42 -24 77
-51 163 -54 198 -9 38 51 3 88 -119 129 -45 15 -95 36 -111 47 -37 26 -58 78
-58 147 0 118 66 203 179 229 52 12 59 12 133 0z m1290 0 c36 -5 84 -19 108
-29 l43 -19 -36 -71 -35 -70 -40 20 c-77 39 -160 18 -160 -40 0 -34 11 -41
114 -76 96 -33 144 -66 167 -117 52 -115 -4 -258 -121 -310 -56 -25 -164 -33
-226 -18 -55 14 -154 60 -154 72 0 11 70 139 76 139 2 0 21 -11 42 -24 77 -51
163 -54 198 -9 38 51 3 88 -119 129 -45 15 -95 36 -111 47 -37 26 -58 78 -58
147 0 118 66 203 179 229 52 12 59 12 133 0z m-5450 -221 l165 -211 3 211 2
212 95 0 95 0 0 -355 0 -355 -94 0 -95 0 -168 215 -168 215 -3 -215 -2 -215
-90 0 -90 0 0 355 0 355 93 0 92 0 165 -212z m910 137 l0 -75 -110 0 -110 0 0
-60 0 -60 105 0 105 0 0 -80 0 -80 -105 0 -105 0 0 -65 0 -65 110 0 110 0 0
-75 0 -75 -200 0 -200 0 0 355 0 355 200 0 200 0 0 -75z m300 -146 c0 -141 4
-236 12 -261 30 -100 177 -112 225 -17 9 17 13 93 13 262 l0 237 96 0 95 0 -3
-262 c-3 -247 -4 -265 -25 -303 -31 -58 -81 -105 -143 -134 -47 -22 -69 -26
-150 -26 -78 0 -104 4 -145 23 -60 28 -100 64 -128 117 -21 38 -22 56 -25 313
l-3 272 90 0 91 0 0 -221z m1010 146 l0 -75 -75 0 -75 0 0 -280 0 -280 -95 0
-95 0 0 280 0 280 -75 0 -75 0 0 75 0 75 245 0 245 0 0 -75z m453 64 c85 -23
147 -111 147 -209 0 -94 -43 -159 -125 -190 -19 -7 -24 -14 -18 -23 6 -6 56
-72 111 -144 l102 -133 -118 0 -117 1 -80 125 c-44 69 -83 128 -87 131 -5 2
-8 -55 -8 -126 l0 -131 -90 0 -90 0 0 355 0 355 168 0 c92 0 184 -5 205 -11z
m1982 -81 c33 -47 63 -89 67 -93 4 -4 35 36 70 89 l63 96 112 0 112 0 -134
-186 -135 -186 0 -169 0 -169 -90 0 -90 0 0 170 0 169 -97 138 c-53 76 -112
160 -131 186 l-34 48 113 -3 113 -3 61 -87z m-3589 -755 c10 -43 21 -82 24
-86 4 -5 13 13 19 40 31 124 31 124 54 121 18 -2 24 -17 42 -88 12 -46 24 -80
27 -75 3 6 14 45 24 88 14 61 21 77 36 77 23 0 23 3 -7 -110 -36 -134 -34
-130 -55 -130 -19 0 -40 50 -56 136 -3 19 -9 34 -13 34 -4 0 -16 -37 -27 -82
-16 -70 -23 -83 -41 -86 -18 -3 -24 4 -33 40 -7 24 -20 74 -31 113 -23 86 -23
85 0 85 16 0 22 -14 37 -77z m924 37 c0 -13 7 -20 20 -20 11 0 20 -7 20 -15 0
-8 -9 -15 -20 -15 -17 0 -20 -7 -20 -44 0 -54 8 -76 26 -76 8 0 14 -7 14 -15
0 -18 -41 -20 -58 -3 -7 7 -12 39 -12 75 0 49 -3 63 -15 63 -8 0 -15 7 -15 15
0 8 7 15 15 15 8 0 15 9 15 20 0 11 7 20 15 20 8 0 15 -9 15 -20z m770 0 c0
-13 7 -20 20 -20 11 0 20 -7 20 -15 0 -8 -9 -15 -20 -15 -17 0 -20 -7 -20 -44
0 -54 8 -76 26 -76 8 0 14 -7 14 -15 0 -18 -41 -20 -58 -3 -7 7 -12 39 -12 75
0 49 -3 63 -15 63 -8 0 -15 7 -15 15 0 8 7 15 15 15 8 0 15 9 15 20 0 11 7 20
15 20 8 0 15 -9 15 -20z m1610 0 c0 -13 7 -20 20 -20 11 0 20 -4 20 -10 0 -5
-9 -10 -20 -10 -18 0 -20 -7 -20 -60 0 -49 4 -62 20 -72 27 -17 25 -28 -3 -28
-37 0 -47 19 -47 92 0 54 -3 68 -15 68 -8 0 -15 5 -15 10 0 6 7 10 15 10 8 0
15 9 15 20 0 11 7 20 15 20 8 0 15 -9 15 -20z m340 0 c0 -13 7 -20 20 -20 11
0 20 -4 20 -10 0 -5 -9 -10 -20 -10 -18 0 -20 -7 -20 -60 0 -49 4 -62 20 -72
27 -17 25 -28 -3 -28 -37 0 -47 19 -47 92 0 54 -3 68 -15 68 -8 0 -15 5 -15
10 0 6 7 10 15 10 8 0 15 9 15 20 0 11 7 20 15 20 8 0 15 -9 15 -20z m-3257
-37 c8 -10 19 -30 22 -45 l7 -28 -61 0 c-63 0 -70 -5 -51 -41 11 -20 54 -26
65 -9 9 15 35 12 35 -5 0 -37 -95 -48 -125 -15 -24 27 -25 98 -2 133 14 22 25
27 56 27 23 0 44 -7 54 -17z m249 0 c14 -13 18 -31 18 -88 l0 -73 -52 0 c-70
-1 -85 4 -92 31 -9 34 19 66 64 73 30 5 40 11 40 25 0 14 -7 19 -30 19 -16 0
-30 -4 -30 -10 0 -5 -7 -10 -15 -10 -18 0 -20 21 -3 38 17 17 78 15 100 -5z
m98 -53 c0 -56 3 -72 16 -77 34 -13 49 11 52 81 3 58 5 66 22 66 18 0 20 -7
20 -89 l0 -88 -65 -1 c-79 -2 -85 6 -85 107 0 64 2 71 20 71 18 0 20 -7 20
-70z m380 60 c29 -15 44 -73 30 -115 -14 -41 -35 -55 -84 -55 -43 0 -71 35
-71 90 0 55 28 90 71 90 19 0 44 -4 54 -10z m198 -2 c9 -8 16 -8 24 0 7 7 27
12 45 12 43 0 53 -21 53 -109 0 -64 -2 -71 -20 -71 -18 0 -20 7 -20 70 0 56
-3 72 -16 77 -34 13 -49 -11 -52 -81 -2 -50 -6 -66 -17 -66 -12 0 -15 15 -15
70 0 56 -3 72 -16 77 -34 13 -49 -11 -52 -81 -3 -58 -5 -66 -22 -66 -18 0 -20
7 -20 89 l0 88 57 1 c32 0 64 -4 71 -10z m284 -5 c14 -13 18 -31 18 -88 l0
-73 -52 0 c-70 -1 -85 4 -92 31 -9 34 19 66 64 73 30 5 40 11 40 25 0 14 -7
19 -30 19 -16 0 -30 -4 -30 -10 0 -5 -7 -10 -15 -10 -18 0 -20 21 -3 38 17 17
78 15 100 -5z m291 0 c8 -10 19 -30 22 -45 l7 -28 -61 0 c-63 0 -70 -5 -51
-41 11 -20 54 -26 65 -9 9 15 35 12 35 -5 0 -37 -95 -48 -125 -15 -24 27 -25
98 -2 133 14 22 25 27 56 27 23 0 44 -7 54 -17z m172 -43 c10 -33 21 -60 25
-60 3 0 13 26 21 58 12 45 19 58 37 60 21 3 20 1 -12 -96 -45 -133 -51 -142
-86 -142 -20 0 -30 5 -30 15 0 8 9 15 19 15 32 0 32 26 1 114 -35 100 -35 96
-12 96 14 0 23 -15 37 -60z m235 50 c29 -15 44 -73 30 -115 -14 -41 -35 -55
-84 -55 -43 0 -71 35 -71 90 0 55 28 90 71 90 19 0 44 -4 54 -10z m110 -60 c0
-56 3 -72 16 -77 34 -13 49 11 52 81 3 58 5 66 22 66 18 0 20 -7 20 -89 l0
-88 -65 -1 c-79 -2 -85 6 -85 107 0 64 2 71 20 71 18 0 20 -7 20 -70z m240 57
c0 -7 -10 -17 -22 -22 -20 -9 -23 -19 -26 -77 -3 -60 -5 -68 -22 -68 -18 0
-20 7 -20 89 l0 89 45 0 c28 0 45 -4 45 -11z m140 2 c0 -8 4 -8 14 0 24 20 69
9 83 -19 7 -14 13 -53 13 -87 0 -56 -2 -63 -20 -63 -18 0 -20 7 -20 75 0 67
-2 75 -19 75 -45 0 -51 -9 -51 -81 0 -55 -3 -69 -15 -69 -12 0 -15 17 -15 90
0 73 3 90 15 90 8 0 15 -5 15 -11z m270 -9 c11 -11 20 -31 20 -45 0 -24 -3
-25 -55 -25 -47 0 -55 -3 -55 -18 0 -11 9 -27 21 -38 16 -15 23 -16 37 -6 44
31 68 26 37 -8 -24 -26 -79 -26 -105 0 -15 15 -20 33 -20 70 0 59 24 90 70 90
17 0 39 -9 50 -20z m95 -10 c9 -16 18 -30 20 -30 2 0 11 14 20 30 9 17 22 30
30 30 20 0 19 -4 -9 -48 l-24 -39 29 -46 c25 -40 27 -47 12 -47 -10 0 -28 17
-39 38 l-22 37 -18 -37 c-11 -24 -25 -38 -36 -38 -16 0 -15 6 11 47 l29 46
-24 39 c-28 44 -29 48 -9 48 8 0 21 -13 30 -30z m409 8 c15 -25 1 -32 -27 -14
-26 17 -57 12 -57 -9 0 -7 20 -20 45 -29 53 -21 69 -54 40 -86 -29 -33 -115
-21 -115 15 0 19 17 19 36 0 9 -8 21 -15 28 -15 8 0 19 7 26 15 15 18 -2 45
-29 45 -26 0 -61 29 -61 50 0 10 7 26 16 35 21 21 83 16 98 -7z m276 2 c11
-11 20 -31 20 -45 0 -24 -3 -25 -55 -25 -47 0 -55 -3 -55 -18 0 -11 9 -27 21
-38 16 -15 23 -16 37 -6 44 31 68 26 37 -8 -24 -26 -79 -26 -105 0 -15 15 -20
33 -20 70 0 59 24 90 70 90 17 0 39 -9 50 -20z m100 8 c0 -9 3 -9 12 0 20 20
65 14 82 -10 21 -29 20 -107 0 -137 -14 -20 -23 -22 -55 -18 -39 5 -39 5 -39
-29 0 -24 -5 -34 -15 -34 -12 0 -15 20 -15 120 0 100 3 120 15 120 8 0 15 -5
15 -12z"/>
<path d="M4065 2801 c-109 -49 -148 -190 -81 -291 74 -112 258 -112 332 0 88
133 -7 310 -166 310 -25 0 -63 -9 -85 -19z"/>
<path d="M3300 2751 l0 -91 29 0 c76 0 129 50 116 110 -9 41 -38 62 -95 68
l-50 5 0 -92z"/>
<path d="M2186 2105 c-4 -12 3 -15 34 -15 31 0 38 3 34 15 -4 8 -18 15 -34 15
-16 0 -30 -7 -34 -15z"/>
<path d="M2437 2043 c-4 -3 -7 -15 -7 -25 0 -16 6 -19 33 -16 24 2 33 8 35 26
3 18 -1 22 -26 22 -16 0 -32 -3 -35 -7z"/>
<path d="M2921 2101 c-26 -48 -3 -105 39 -99 54 7 52 110 -2 116 -18 2 -30 -3
-37 -17z"/>
<path d="M3397 2043 c-4 -3 -7 -15 -7 -25 0 -16 6 -19 33 -16 24 2 33 8 35 26
3 18 -1 22 -26 22 -16 0 -32 -3 -35 -7z"/>
<path d="M3686 2105 c-4 -12 3 -15 34 -15 31 0 38 3 34 15 -4 8 -18 15 -34 15
-16 0 -30 -7 -34 -15z"/>
<path d="M4101 2101 c-26 -48 -3 -105 39 -99 54 7 52 110 -2 116 -18 2 -30 -3
-37 -17z"/>
<path d="M4868 2119 c-33 -19 -21 -39 22 -39 44 0 55 21 21 40 -23 12 -22 12
-43 -1z"/>
<path d="M5648 2119 c-33 -19 -21 -39 22 -39 44 0 55 21 21 40 -23 12 -22 12
-43 -1z"/>
<path d="M5842 2119 c-21 -8 -23 -14 -20 -61 3 -50 5 -53 32 -56 16 -2 32 2
37 10 14 22 10 86 -7 102 -8 9 -16 16 -17 15 -1 0 -12 -4 -25 -10z"/>
</g>
</svg>
